<svg width="20" height="20" viewBox="0 0 20 20" fill="none" xmlns="http://www.w3.org/2000/svg">
<g clip-path="url(#clip0_502_2195)">
<path d="M14.375 8.125H18.125V4.375" stroke="black" stroke-width="1.2" stroke-linecap="round" stroke-linejoin="round"/>
<path d="M14.7188 15C13.736 15.9274 12.5018 16.5446 11.1702 16.7745C9.83865 17.0044 8.46887 16.8368 7.23202 16.2926C5.99517 15.7485 4.94609 14.852 4.21585 13.715C3.48562 12.5781 3.10662 11.2511 3.12621 9.90004C3.1458 8.54893 3.5631 7.23355 4.32599 6.11825C5.08887 5.00295 6.1635 4.13719 7.41561 3.62914C8.66771 3.12109 10.0418 2.99329 11.3661 3.26169C12.6904 3.5301 13.9063 4.18281 14.8618 5.13828L18.1251 8.125" stroke="black" stroke-width="1.2" stroke-linecap="round" stroke-linejoin="round"/>
</g>
<defs>
<clipPath id="clip0_502_2195">
<rect width="20" height="20" fill="white"/>
</clipPath>
</defs>
</svg>
